
  <svg width="329.25" height="48" viewBox="0 0 1756 256" fill="none" xmlns="http://www.w3.org/2000/svg" xmlns:xlink="http://www.w3.org/1999/xlink" version="1.1">
    
        <g transform="translate(0, 0)">
          <svg width="256" height="256" viewBox="0 0 256 256" fill="none" xmlns="http://www.w3.org/2000/svg">
<g clip-path="url(#clip0_33_480)">
<path d="M196 0H60C26.8629 0 0 26.8629 0 60V196C0 229.137 26.8629 256 60 256H196C229.137 256 256 229.137 256 196V60C256 26.8629 229.137 0 196 0Z" fill="#242938"/>
<path d="M40 65.6631L110.968 55.9983L111 124.453L40.0656 124.857L40 65.6631ZM110.935 132.34L110.99 200.855L40.0557 191.102L40.0517 131.881L110.935 132.34ZM119.537 54.7335L213.636 41V123.582L119.537 124.33V54.7335ZM213.658 132.984L213.636 215.195L119.537 201.914L119.406 132.831L213.658 132.984Z" fill="#00ADEF"/>
</g>
<defs>
<clipPath id="clip0_33_480">
<rect width="256" height="256" fill="white"/>
</clipPath>
</defs>
</svg>

        </g>
         
        <g transform="translate(300, 0)">
          <svg xmlns="http://www.w3.org/2000/svg" width="256" height="256" fill="none" viewBox="0 0 256 256"><rect width="256" height="256" fill="#242938" rx="60"/><path fill="#ECEFF1" d="M85.9493 199.926L110.48 213.546H147.576L182.278 187.491L197.834 146.632L161.935 103.405L151.764 79.1268L102.104 80.9032L102.702 94.5228L93.1291 112.287L78.1713 141.303L75.1797 165.581L85.9493 199.926Z"/><path fill="#263238" d="M187.064 114.656C177.491 101.036 169.713 92.7463 165.525 75.5738C161.337 58.4013 166.722 63.1386 163.132 48.3347C161.337 40.6367 158.345 35.3073 155.354 31.1622C151.764 27.0171 147.576 24.6485 145.182 24.0563C139.798 21.0956 127.233 16.3583 111.677 24.6485C95.5223 32.9387 97.3172 50.7033 100.309 86.8248C100.309 89.1934 99.7105 92.1542 98.5139 94.5228C96.1206 99.8522 91.9324 104.589 88.3425 108.735C84.1543 114.656 79.9661 120.578 76.9746 127.091C69.7948 140.711 63.2134 157.883 65.0083 164.397C67.9999 163.805 105.694 220.652 105.694 221.836C108.087 221.244 118.258 221.244 127.233 221.244C139.798 220.652 146.977 220.06 157.149 222.428C157.149 220.652 156.55 218.875 156.55 217.099C156.55 213.546 157.149 210.585 157.747 206.44C158.345 203.479 158.944 200.519 159.542 196.966C153.559 202.295 142.789 208.217 132.618 209.993C123.643 211.769 108.685 208.809 101.505 199.926C102.104 199.926 103.3 199.926 103.899 199.334C105.694 198.742 107.489 198.15 108.087 196.966C109.882 194.005 108.685 191.044 107.489 189.268C106.292 187.491 97.3173 180.977 93.1291 177.425C88.9409 173.872 86.5476 172.095 84.1544 169.727C84.1544 169.727 80.5645 166.174 79.3678 164.989C78.1712 163.805 77.5729 162.621 76.9746 162.028C75.778 159.068 75.1796 155.515 75.778 150.778C76.3763 144.264 78.7695 138.934 81.7611 133.013C82.9577 130.644 85.9493 125.907 85.9493 125.907C85.9493 125.907 75.778 150.778 81.1628 158.476C81.1628 158.476 81.7611 150.778 84.1544 143.08C85.9493 137.75 88.9409 130.052 92.5307 125.907C96.1206 121.762 105.095 106.366 105.694 96.8914C105.694 92.7463 106.292 88.6012 106.292 85.6405C103.899 83.2718 145.781 77.3503 148.174 83.864C148.772 86.2326 157.149 107.55 161.935 118.801C164.328 124.131 167.32 128.868 169.115 134.789C170.91 141.303 172.106 150.185 172.106 159.068C172.106 160.844 172.106 163.805 171.508 166.766C172.705 166.766 196.039 141.895 168.517 121.17C168.517 121.17 185.269 128.868 185.868 144.264C186.466 156.699 181.081 166.766 179.885 168.542C180.483 168.542 192.449 173.872 193.047 173.872C195.441 173.872 200.227 172.095 200.227 172.095C200.826 170.319 202.62 165.581 202.62 163.805C206.809 150.185 196.637 128.276 187.064 114.656V114.656Z"/><path fill="#ECEFF1" d="M111.078 75.5738C115.374 75.5738 118.856 70.2714 118.856 63.7307C118.856 57.1899 115.374 51.8876 111.078 51.8876C106.783 51.8876 103.3 57.1899 103.3 63.7307C103.3 70.2714 106.783 75.5738 111.078 75.5738Z"/><path fill="#ECEFF1" d="M138.002 76.7581C143.62 76.7581 148.174 70.6604 148.174 63.1386C148.174 55.6167 143.62 49.519 138.002 49.519C132.385 49.519 127.831 55.6167 127.831 63.1386C127.831 70.6604 132.385 76.7581 138.002 76.7581Z"/><path fill="#212121" d="M115.424 64.5411C114.927 60.6476 112.663 57.7241 110.368 58.0111C108.074 58.2982 106.616 61.6872 107.114 65.5807C107.611 69.4741 109.874 72.3977 112.169 72.1106C114.464 71.8235 115.921 68.4345 115.424 64.5411Z"/><path fill="#212121" d="M137.404 73.2052C140.709 73.2052 143.387 69.7587 143.387 65.5072C143.387 61.2557 140.709 57.8091 137.404 57.8091C134.1 57.8091 131.421 61.2557 131.421 65.5072C131.421 69.7587 134.1 73.2052 137.404 73.2052Z"/><path fill="#FFC107" d="M216.98 195.781C214.587 194.597 210.398 192.82 206.808 187.491C205.014 184.53 205.612 176.24 202.62 172.687C200.825 170.319 198.432 171.503 197.834 171.503C192.449 172.687 179.884 180.977 171.508 171.503C170.311 170.319 168.516 168.542 165.525 168.542C162.533 168.542 161.337 169.726 160.14 172.095C158.943 174.464 158.943 176.24 158.943 182.162C158.943 186.899 158.943 192.228 158.345 196.373C157.148 206.44 155.354 212.362 155.354 218.283C155.354 224.797 157.148 228.942 159.542 230.718C161.337 232.495 164.328 233.679 170.91 233.679C177.491 233.679 181.679 231.311 185.868 227.165C188.859 224.205 191.252 223.02 199.629 217.099C206.21 212.954 216.382 207.624 218.176 205.848C219.373 204.664 221.168 204.071 221.168 200.518C221.168 197.558 218.775 196.373 216.98 195.781V195.781Z"/><path fill="#FFC107" d="M96.7189 197.558C90.7357 188.083 90.1374 186.307 85.9492 180.385C82.3593 174.464 74.5813 163.213 69.7948 163.213C66.2049 163.213 64.4099 164.989 62.0167 167.358C59.6234 169.726 57.2302 175.056 53.042 178.017C49.4521 180.977 39.2808 180.385 36.8875 183.938C34.4942 187.491 39.2808 192.821 39.2808 201.703C39.2808 205.256 36.2892 207.624 35.6909 209.993C35.0926 212.954 34.4942 214.73 35.6909 217.099C38.0841 220.652 41.0757 221.836 61.4184 225.981C72.188 228.35 82.3593 234.271 88.9408 234.864C95.5222 235.456 106.89 234.864 106.89 218.875C107.489 209.401 102.104 207.032 96.7189 197.558Z"/><path fill="#FFC107" d="M108.087 90.3777C104.497 88.0091 101.505 85.6404 101.505 82.0875C101.505 78.5346 103.899 77.3503 107.489 74.3895C108.087 73.7973 114.668 67.8758 121.25 67.8758C127.831 67.8758 135.609 72.0209 138.601 73.2052C143.986 74.3895 149.37 75.5738 148.772 79.7189C148.174 85.6404 147.576 86.8248 141.592 89.7855C137.404 90.9698 129.626 97.4835 124.241 97.4835C121.848 97.4835 118.258 97.4835 115.865 96.8914C114.07 96.2992 111.078 93.3385 108.087 90.3777V90.3777Z"/><path fill="#634703" d="M106.89 85.6405C108.087 86.8248 109.882 88.0091 111.677 88.6012C112.873 89.1934 114.668 89.7856 114.668 89.7856C117.062 89.7856 118.857 89.7856 120.053 89.7856C123.045 89.7856 127.233 88.6013 131.421 86.2326C135.609 84.4562 136.208 83.2718 139.199 82.0875C142.191 80.3111 145.182 78.5346 143.986 77.9425C142.789 77.3503 141.592 77.9425 137.404 80.3111C133.814 82.6797 130.823 83.864 127.233 85.6405C125.438 86.2326 123.045 87.4169 121.25 87.4169C119.455 87.4169 117.66 87.4169 115.865 87.4169C114.07 87.4169 112.873 86.8248 111.078 86.2326C109.882 85.6405 109.283 85.0483 108.685 85.0483C107.489 84.4562 105.095 82.0875 103.899 81.4954C103.899 81.4954 102.702 81.4954 103.3 82.0875C105.095 83.864 105.694 84.4562 106.89 85.6405Z"/><path fill="#634703" d="M124.84 72.613C125.438 73.7973 126.635 73.7973 127.233 74.3895C127.831 74.9816 128.429 74.9816 128.429 74.9816C129.028 74.3895 128.429 73.2052 127.831 73.2052C127.831 72.0209 124.84 72.0209 124.84 72.613V72.613Z"/><path fill="#634703" d="M115.267 73.7973C115.267 74.3895 116.463 74.9816 116.463 74.3895C117.062 73.7973 117.66 73.2052 118.258 73.2052C119.455 72.613 118.856 72.0209 117.062 72.0209C115.865 72.613 115.865 73.2052 115.267 73.7973V73.7973Z"/><path fill="#455A64" d="M173.303 178.609C173.303 179.201 173.303 179.793 173.303 180.385C174.5 182.754 177.491 183.346 179.884 183.346C183.474 183.346 187.064 180.977 188.859 178.609C188.859 178.017 189.457 177.424 190.056 176.832C191.252 175.056 191.851 173.872 192.449 173.279C192.449 173.279 191.851 172.687 191.851 172.095C191.252 170.911 189.457 169.726 187.064 169.134C185.269 168.542 182.278 167.95 181.081 167.95C175.696 167.358 172.705 169.134 170.91 170.911C170.91 170.911 171.508 170.911 171.508 171.503C172.705 172.687 173.303 173.872 173.303 175.648C173.901 176.832 173.303 177.424 173.303 178.609V178.609Z"/></svg>
        </g>
         
        <g transform="translate(600, 0)">
          <svg width="256" height="256" viewBox="0 0 256 256" fill="none" xmlns="http://www.w3.org/2000/svg">
<g clip-path="url(#clip0_33_891)">
<path d="M196 0H60C26.8629 0 0 26.8629 0 60V196C0 229.137 26.8629 256 60 256H196C229.137 256 256 229.137 256 196V60C256 26.8629 229.137 0 196 0Z" fill="#242938"/>
<g clip-path="url(#clip1_33_891)">
<path d="M127.999 198.984C167.202 198.984 198.983 167.204 198.983 128C198.983 88.7965 167.202 57.0157 127.999 57.0157C88.7949 57.0157 57.0142 88.7965 57.0142 128C57.0142 167.204 88.7949 198.984 127.999 198.984Z" fill="url(#paint0_linear_33_891)"/>
<path opacity="0.3" d="M198.913 126.039C198.55 144.612 190.921 162.302 177.663 175.314C164.405 188.326 146.575 195.622 127.998 195.637C109.519 195.625 91.7717 188.408 78.5295 175.518C65.2873 162.628 57.5939 145.082 57.0844 126.609C57.0568 127.072 57.0337 127.535 57.0151 127.998C57.0151 146.824 64.4938 164.879 77.806 178.192C91.1181 191.504 109.173 198.982 128 198.982C137.321 198.982 146.552 197.146 155.164 193.579C163.776 190.012 171.602 184.783 178.193 178.192C184.785 171.6 190.013 163.775 193.581 155.163C197.148 146.55 198.984 137.32 198.984 127.998C198.97 127.344 198.947 126.691 198.915 126.038L198.913 126.039Z" fill="black"/>
<path opacity="0.1" d="M127.999 57.0162C109.172 57.0162 91.1172 64.4949 77.805 77.8071C64.4929 91.1192 57.0142 109.174 57.0142 128.001C57.0282 128.653 57.0513 129.306 57.0834 129.958C57.4473 111.386 65.0767 93.6964 78.3345 80.6855C91.5923 67.6746 109.422 60.3789 127.998 60.3641C146.477 60.3753 164.223 67.5924 177.465 80.4814C190.707 93.3705 198.401 110.915 198.912 129.388C198.939 128.926 198.962 128.464 198.981 128.002C198.981 118.68 197.145 109.45 193.577 100.838C190.01 92.2253 184.782 84.4001 178.19 77.8086C171.598 71.2171 163.773 65.9884 155.161 62.4211C146.549 58.8538 137.318 57.0177 127.996 57.0177L127.999 57.0162Z" fill="white"/>
<path opacity="0.3" d="M56.1005 79.6485C44.6076 79.6616 37.0158 80.5869 36.9529 80.5946C36.9526 80.5946 36.9094 80.5985 36.9094 80.5985C36.1591 80.6848 36.2545 81.8025 37.0086 81.7604C37.0086 81.7604 78.7976 79.7861 112.294 93.2487C113.489 98.3616 116.645 106.199 118.509 110.364C115.971 112.106 113.248 113.875 111.008 116.681C108.657 119.626 106.88 123.691 106.406 129.907C105.446 142.515 116.26 153.553 129.634 153.893C142.036 154.553 150.468 154.644 160.733 159.964C165.527 162.618 169.991 168.073 173.326 174.737C176.662 181.404 178.876 189.27 179.273 196.688C179.31 197.417 180.382 197.43 180.437 196.703C180.439 196.68 180.436 196.649 180.438 196.626C180.869 190.946 180.03 182.154 176.625 173.79C173.773 166.784 169.061 160.114 161.816 155.931C172.228 158.774 178.189 164.059 181.616 168.887C185.547 174.428 186.128 179.358 186.124 179.331C186.207 180.028 187.224 180.012 187.285 179.313C187.285 179.313 187.802 173.269 183.631 166.609C179.461 159.95 170.607 152.671 152.149 149.962C147.474 149.276 141.573 148.749 135.594 148.734C135.591 148.734 135.588 148.734 135.585 148.734C121.115 148.925 113.821 140.678 112.685 132.218C112.118 127.989 113.111 123.704 115.568 120.384C118.025 117.065 121.935 114.688 127.323 114.266H127.326C136.172 113.536 146.962 118.321 157.572 123.258C157.562 124.484 157.671 125.721 158.567 126.841C159.166 127.591 160.249 128.112 161.351 128.632C162.452 129.152 163.586 129.624 164.035 129.882C165.058 130.469 168.468 132.656 170.479 135.273C170.737 135.61 171.257 135.567 171.456 135.193C171.467 135.174 171.772 134.821 172.176 134.484C172.579 134.146 173.091 133.762 173.59 133.403C174.587 132.685 175.53 132.07 175.53 132.07C176.022 131.75 175.786 130.986 175.2 130.998C175.2 130.998 175.057 131.006 174.599 130.919C174.141 130.831 173.413 130.647 172.377 130.26C171.424 129.904 170.285 129.133 169.407 128.435C168.968 128.087 168.59 127.757 168.323 127.51C168.291 127.48 168.278 127.466 168.249 127.439C168.528 127.188 168.566 126.786 168.51 126.534C168.452 126.276 168.34 126.067 168.214 125.863C167.962 125.456 167.642 125.094 167.42 124.872L167.42 124.872C167.452 124.904 167.354 124.79 167.256 124.646C167.157 124.501 167.03 124.306 166.886 124.081C166.6 123.631 166.249 123.058 165.908 122.494C165.225 121.366 164.608 120.317 164.549 120.218C164.548 120.216 164.4 119.905 164.114 119.714C164.069 119.684 164.02 119.66 163.968 119.644C163.645 119.54 163.388 119.564 163.056 119.581C162.725 119.598 162.356 119.637 162.007 119.682C161.424 119.757 161.061 119.822 160.903 119.85C160.509 119.642 157.424 117.933 156.29 114.451C156.081 113.813 155.136 113.976 155.153 114.648C155.159 114.876 154.813 115.558 154.888 116.589C153.518 115.763 152.339 114.451 151.312 111.748C151.123 111.25 150.42 111.244 150.224 111.74C149.83 112.729 149.807 113.556 149.886 114.198C148.585 113.586 146.453 112.239 145.989 109.562C145.889 108.989 145.104 108.898 144.877 109.434C144.494 110.336 144.46 111.083 144.524 111.685C142.098 110.644 135.417 108.211 125.445 108.157C123.52 107.98 121.991 107.017 120.734 105.573C119.478 104.129 118.524 102.203 117.848 100.21C117.172 98.216 116.773 96.1551 116.592 94.4551C116.411 92.7549 116.487 91.3494 116.614 90.9464C116.698 90.6777 116.578 90.3872 116.329 90.2559C116.329 90.2559 104.135 83.841 80.2962 81.0211C71.3579 79.9638 63.0263 79.6407 56.1017 79.6486L56.1005 79.6485ZM83.9396 92.352C80.3073 92.3794 76.4083 92.5148 72.3115 92.806C50.4263 94.3615 28.3935 102.008 28.3935 102.008C27.6887 102.251 28.0041 103.308 28.7269 103.125C28.7269 103.125 73.6644 91.8463 111.203 98.4573C111.237 98.4633 111.27 98.4663 111.304 98.4664H111.306C111.699 98.4663 111.979 98.0856 111.863 97.7103L110.882 94.5441C110.817 94.3354 110.641 94.1802 110.426 94.142C110.426 94.142 99.678 92.234 83.9405 92.3522C83.939 92.3522 83.9374 92.3522 83.936 92.3522L83.9396 92.352ZM110.624 99.0958C106.761 99.0794 94.8755 99.5661 77.0236 105.152C54.6197 112.162 41.8681 122.128 41.8681 122.128C41.3062 122.573 41.885 123.443 42.512 123.096C42.512 123.096 75.6851 104.595 113.043 103.545C113.434 103.534 113.703 103.15 113.58 102.779L112.507 99.5298C112.432 99.3044 112.229 99.1466 111.992 99.1308C111.992 99.1308 111.516 99.0995 110.625 99.0957L110.624 99.0958ZM135.05 99.0416C134.478 99.05 134.258 99.7915 134.734 100.11H134.735C134.769 100.133 134.805 100.152 134.844 100.167C145.089 104.332 153.975 109.838 160.863 117.406C160.869 117.412 160.875 117.419 160.882 117.425L160.883 117.426C161.001 117.545 161.165 117.607 161.333 117.596L163.004 117.486C163.479 117.455 163.719 116.9 163.416 116.534C163.416 116.534 153.738 104.804 135.283 99.0875C135.281 99.0867 135.279 99.0852 135.277 99.0844C135.268 99.0809 135.258 99.0776 135.249 99.0745C135.244 99.0725 135.238 99.071 135.233 99.0691C135.174 99.0503 135.112 99.0409 135.05 99.0416ZM164.222 123.739C164.557 123.806 165.189 125.05 165.77 125.938C165.821 126.011 165.872 126.087 165.921 126.148C165.921 126.154 165.922 126.157 165.926 126.163C165.992 126.256 166.057 126.353 166.12 126.431C166.151 126.617 166.204 126.731 165.77 126.641C165.733 126.45 165.67 126.395 165.67 126.395C165.67 126.395 164.621 125.771 164.299 125.328C163.978 124.885 163.921 124.111 164.078 123.817C164.116 123.752 164.165 123.728 164.222 123.739Z" fill="black"/>
<path d="M56.1013 77.8867C44.5919 77.8999 36.9806 78.8322 36.9806 78.8322C36.9806 78.8322 79.0626 76.8125 112.774 90.4608C113.92 95.5865 117.367 104.123 119.224 108.227C113.911 111.9 107.919 115.355 106.986 127.606C106.054 139.857 116.586 150.633 129.648 150.965C142.05 151.626 150.62 151.72 161.006 157.105C170.92 162.587 179.05 179.29 179.854 194.313C180.723 183.167 176.54 159.197 157.021 151.918C184.297 156.691 186.701 176.908 186.702 176.916C186.702 176.916 188.735 153.574 152.063 148.193C147.415 147.511 141.536 146.986 135.591 146.971C106.198 147.359 105.126 113.07 127.275 111.339C136.454 110.581 147.414 115.533 158.129 120.523C158.089 121.854 158.145 123.036 159.019 124.129C159.893 125.222 163.25 126.413 164.323 127.029C165.396 127.645 168.833 129.83 170.939 132.571C171.396 131.717 175.21 129.234 175.21 129.234C175.21 129.234 174.296 129.254 172.171 128.46C170.045 127.665 167.522 125.261 167.462 125.122C167.403 124.983 167.363 124.765 167.86 124.665C168.237 124.348 167.383 123.315 167.005 122.937C166.628 122.56 164.105 118.269 164.046 118.17C163.986 118.071 163.966 117.971 163.787 117.852C163.231 117.673 160.787 118.11 160.787 118.11C160.787 118.11 157.029 116.264 155.734 112.285C155.753 112.982 155.089 113.743 155.734 115.345C153.774 114.516 152.091 113.102 150.764 109.608C149.974 111.595 150.764 112.859 150.764 112.859C150.764 112.859 146.15 111.569 145.412 107.314C144.602 109.224 145.412 110.373 145.412 110.373C145.412 110.373 137.889 106.448 125.391 106.391C117.023 105.624 115.28 90.903 116.056 88.4249C116.056 88.4249 103.986 82.0635 80.2264 79.2534C71.3167 78.1994 63.0073 77.8769 56.1014 77.8848L56.1013 77.8867ZM83.9435 90.5902C80.3225 90.6175 76.4356 90.7526 72.3521 91.0429C50.5743 92.5908 28.5864 100.214 28.5864 100.214C28.5864 100.214 73.5786 88.8933 111.309 95.5374H111.31L110.329 92.3711C110.329 92.3711 99.6356 90.4719 83.945 90.5901L83.9435 90.5902ZM110.62 97.3336C106.812 97.3175 94.9876 97.7964 77.197 103.363C54.8829 110.345 42.2274 120.242 42.2274 120.242C42.2274 120.242 75.4856 101.672 113.024 100.617L111.95 97.3681C111.95 97.3681 111.499 97.3377 110.62 97.3339L110.62 97.3336ZM135.058 97.2791C145.362 101.468 154.331 107.018 161.294 114.667L161.295 114.668L162.966 114.559C162.966 114.559 153.389 102.939 135.058 97.2791ZM163.461 119.616L165.511 121.127C165.768 120.681 166.804 123.496 167.434 124.278C167.461 124.434 166.387 125.689 166.022 125.614C165.991 125.453 164.323 124.971 164.323 124.971C164.323 124.971 162.427 123.826 162.157 123.454C161.886 123.082 163.329 119.863 163.461 119.616Z" fill="white" stroke="white" stroke-width="2.9864" stroke-linejoin="round"/>
<path d="M56.1013 77.8867C44.5919 77.8999 36.9806 78.8322 36.9806 78.8322C36.9806 78.8322 79.0626 76.8125 112.774 90.4608C113.92 95.5865 117.367 104.123 119.224 108.227C113.911 111.9 107.919 115.355 106.986 127.606C106.054 139.857 116.586 150.633 129.648 150.965C142.05 151.626 150.62 151.72 161.006 157.105C170.92 162.587 179.05 179.29 179.854 194.313C180.723 183.167 176.54 159.197 157.021 151.918C184.297 156.691 186.701 176.908 186.702 176.916C186.702 176.916 188.735 153.574 152.063 148.193C147.415 147.511 141.536 146.986 135.591 146.971C106.198 147.359 105.126 113.07 127.275 111.339C136.454 110.581 147.414 115.533 158.129 120.523C158.089 121.854 158.145 123.036 159.019 124.129C159.893 125.222 163.25 126.413 164.323 127.029C165.396 127.645 168.833 129.83 170.939 132.571C171.396 131.717 175.21 129.234 175.21 129.234C175.21 129.234 174.296 129.254 172.171 128.46C170.045 127.665 167.522 125.261 167.462 125.122C167.403 124.983 167.363 124.765 167.86 124.665C168.237 124.348 167.383 123.315 167.005 122.937C166.628 122.56 164.105 118.269 164.046 118.17C163.986 118.071 163.966 117.971 163.787 117.852C163.231 117.673 160.787 118.11 160.787 118.11C160.787 118.11 157.029 116.264 155.734 112.285C155.753 112.982 155.089 113.743 155.734 115.345C153.774 114.516 152.091 113.102 150.764 109.608C149.974 111.595 150.764 112.859 150.764 112.859C150.764 112.859 146.15 111.569 145.412 107.314C144.602 109.224 145.412 110.373 145.412 110.373C145.412 110.373 137.889 106.448 125.391 106.391C117.023 105.624 115.28 90.903 116.056 88.4249C116.056 88.4249 103.986 82.0635 80.2264 79.2534C71.3167 78.1994 63.0073 77.8769 56.1014 77.8848L56.1013 77.8867ZM83.9435 90.5902C80.3225 90.6175 76.4356 90.7526 72.3521 91.0429C50.5743 92.5908 28.5864 100.214 28.5864 100.214C28.5864 100.214 73.5786 88.8933 111.309 95.5374H111.31L110.329 92.3711C110.329 92.3711 99.636 90.5901 83.945 90.5901L83.9435 90.5902ZM110.62 97.3336C106.812 97.3175 94.9876 97.7964 77.197 103.363C54.8829 110.345 42.2274 120.242 42.2274 120.242C42.2274 120.242 75.4856 101.672 113.024 100.617L111.95 97.3681C111.95 97.3681 111.499 97.3377 110.62 97.3339L110.62 97.3336ZM135.058 97.2791C145.362 101.468 154.331 107.018 161.294 114.667L161.295 114.668L162.966 114.559C162.966 114.559 153.389 102.939 135.058 97.2791ZM164.222 121.393C164.557 121.46 165.19 122.704 165.771 123.592C165.822 123.664 165.874 123.741 165.923 123.802C165.924 123.807 165.924 123.811 165.925 123.816C165.991 123.91 166.057 124.007 166.12 124.085C166.151 124.271 166.204 124.384 165.77 124.295C165.733 124.104 165.67 124.049 165.67 124.049C165.67 124.049 164.621 123.424 164.299 122.982C163.977 122.539 163.92 121.765 164.077 121.471C164.116 121.405 164.165 121.381 164.222 121.393Z" fill="white"/>
</g>
</g>
<defs>
<linearGradient id="paint0_linear_33_891" x1="98.3323" y1="166.418" x2="144.69" y2="120.06" gradientUnits="userSpaceOnUse">
<stop stop-color="#249EFF"/>
<stop offset="1" stop-color="#2777FF"/>
</linearGradient>
<clipPath id="clip0_33_891">
<rect width="256" height="256" fill="white"/>
</clipPath>
<clipPath id="clip1_33_891">
<rect width="200" height="200" fill="white" transform="translate(28 28)"/>
</clipPath>
</defs>
</svg>

        </g>
         
        <g transform="translate(900, 0)">
          <svg width="256" height="256" viewBox="0 0 256 256" fill="none" xmlns="http://www.w3.org/2000/svg">
<g clip-path="url(#clip0_33_899)">
<path d="M196 0H60C26.8629 0 0 26.8629 0 60V196C0 229.137 26.8629 256 60 256H196C229.137 256 256 229.137 256 196V60C256 26.8629 229.137 0 196 0Z" fill="#242938"/>
<path d="M127.5 206.25C170.992 206.25 206.25 170.992 206.25 127.5C206.25 84.0076 170.992 48.75 127.5 48.75C84.0076 48.75 48.75 84.0076 48.75 127.5C48.75 170.992 84.0076 206.25 127.5 206.25Z" fill="#F47421"/>
<path d="M127.5 165.694C148.594 165.694 165.694 148.594 165.694 127.5C165.694 106.406 148.594 89.3062 127.5 89.3062C106.406 89.3062 89.3062 106.406 89.3062 127.5C89.3062 148.594 106.406 165.694 127.5 165.694Z" stroke="white" stroke-width="8.55"/>
<path d="M73.9499 142.266C82.1048 142.266 88.7157 135.655 88.7157 127.5C88.7157 119.345 82.1048 112.734 73.9499 112.734C65.795 112.734 59.1841 119.345 59.1841 127.5C59.1841 135.655 65.795 142.266 73.9499 142.266Z" fill="#F47421"/>
<path d="M157.25 127.5H174.75H157.25Z" fill="black"/>
<path d="M157.25 127.5H174.75" stroke="#F47421" stroke-width="3.2378"/>
<path d="M73.95 138.013C79.7562 138.013 84.4631 133.306 84.4631 127.5C84.4631 121.694 79.7562 116.987 73.95 116.987C68.1439 116.987 63.437 121.694 63.437 127.5C63.437 133.306 68.1439 138.013 73.95 138.013Z" fill="white"/>
<path d="M141.487 73.7415C137.41 80.8039 139.83 89.8345 146.892 93.9119C153.954 97.9894 162.985 95.5697 167.062 88.5073C171.14 81.4449 168.72 72.4143 161.658 68.3368C154.595 64.2594 145.565 66.6791 141.487 73.7415Z" fill="#F47421"/>
<path d="M112.625 153.264L103.875 168.42L112.625 153.264Z" fill="black"/>
<path d="M112.625 153.264L103.875 168.42" stroke="#F47421" stroke-width="3.2378"/>
<path d="M145.17 75.8679C142.267 80.8962 143.99 87.3259 149.018 90.229C154.046 93.1321 160.476 91.4092 163.379 86.3809C166.282 81.3526 164.559 74.9229 159.531 72.0198C154.503 69.1168 148.073 70.8396 145.17 75.8679Z" fill="white"/>
<path d="M167.062 166.493C162.985 159.43 153.954 157.011 146.892 161.088C139.829 165.166 137.41 174.196 141.487 181.259C145.565 188.321 154.595 190.741 161.658 186.663C168.72 182.586 171.14 173.555 167.062 166.493Z" fill="#F47421"/>
<path d="M112.625 101.736L103.875 86.5804L112.625 101.736Z" fill="black"/>
<path d="M112.625 101.736L103.875 86.5804" stroke="#F47421" stroke-width="3.2378"/>
<path d="M163.379 168.619C160.476 163.591 154.047 161.868 149.018 164.771C143.99 167.674 142.267 174.104 145.17 179.132C148.073 184.161 154.503 185.883 159.531 182.98C164.56 180.077 166.282 173.648 163.379 168.619Z" fill="white"/>
</g>
<defs>
<clipPath id="clip0_33_899">
<rect width="256" height="256" fill="white"/>
</clipPath>
</defs>
</svg>

        </g>
         
        <g transform="translate(1200, 0)">
          <svg width="256" height="256" viewBox="0 0 256 256" fill="none" xmlns="http://www.w3.org/2000/svg">
<g clip-path="url(#clip0_33_879)">
<path d="M196 0H60C26.8629 0 0 26.8629 0 60V196C0 229.137 26.8629 256 60 256H196C229.137 256 256 229.137 256 196V60C256 26.8629 229.137 0 196 0Z" fill="#242938"/>
<g clip-path="url(#clip1_33_879)">
<path d="M215 127.5C215 175.825 175.825 215 127.5 215C79.1751 215 40 175.825 40 127.5C40 79.1751 79.1751 40 127.5 40C175.825 40 215 79.1751 215 127.5Z" fill="#D70751"/>
<path d="M163.86 119.01C163.978 122.192 162.931 123.738 161.984 126.473L160.282 127.319C158.889 130.025 160.42 129.037 159.423 131.187C157.247 133.119 152.83 137.231 151.415 137.608C150.381 137.585 152.115 136.388 152.341 135.921C149.432 137.917 150.006 138.918 145.556 140.134L145.427 139.843C134.456 145.006 119.216 134.776 119.416 120.821C119.3 121.706 119.083 121.485 118.84 121.841C118.274 114.662 122.157 107.451 128.705 104.502C135.109 101.333 142.618 102.632 147.202 106.911C144.684 103.611 139.668 100.111 133.727 100.435C127.904 100.53 122.456 104.23 120.638 108.248C117.656 110.124 117.309 115.486 116.01 116.469C114.26 129.323 119.299 134.874 127.824 141.407C129.162 142.311 128.201 142.449 128.38 143.137C125.548 141.812 122.956 139.81 120.823 137.359C121.955 139.014 123.176 140.624 124.755 141.888C122.083 140.986 118.515 135.418 117.476 135.191C122.079 143.433 136.149 149.645 143.52 146.562C140.109 146.689 135.777 146.632 131.947 145.216C130.334 144.388 128.149 142.674 128.54 142.354C138.597 146.109 148.983 145.196 157.683 138.223C159.898 136.498 162.316 133.565 163.016 133.525C161.963 135.108 163.196 134.286 162.387 135.684C164.59 132.126 161.427 134.235 164.666 129.541L165.862 131.187C165.414 128.232 169.53 124.647 169.111 119.977C170.055 118.549 170.163 121.515 169.162 124.8C170.552 121.156 169.53 120.57 169.885 117.562C170.268 118.573 170.778 119.646 171.038 120.715C170.131 117.192 171.963 114.784 172.419 112.736C171.969 112.539 171.022 114.293 170.803 110.134C170.836 108.327 171.308 109.187 171.488 108.742C171.135 108.537 170.204 107.152 169.639 104.496C170.046 103.87 170.735 106.114 171.293 106.205C170.934 104.094 170.316 102.483 170.289 100.862C168.656 97.4509 169.711 101.318 168.389 99.3974C166.65 93.9792 169.83 98.1397 170.046 95.6795C172.677 99.4922 174.177 105.406 174.869 107.854C174.342 104.868 173.492 101.975 172.453 99.1761C173.255 99.5146 171.164 93.0349 173.495 97.3258C171.007 88.1791 162.856 79.6317 155.356 75.6227C156.271 76.4617 157.429 77.5153 157.015 77.6812C153.283 75.462 153.939 75.2869 153.404 74.3492C150.368 73.1125 150.166 74.4506 148.157 74.3519C142.428 71.3122 141.324 71.6349 136.052 69.7331L136.292 70.8552C132.498 69.5909 131.871 71.332 127.771 70.858C127.522 70.6644 129.085 70.1521 130.373 69.9664C126.704 70.451 126.876 69.242 123.285 70.0994C124.169 69.4791 125.107 69.0668 126.05 68.54C123.059 68.7218 118.906 70.2811 120.188 68.8614C115.308 71.0397 106.641 74.0965 101.777 78.6573L101.625 77.6353C99.3961 80.3102 91.9062 85.6243 91.3096 89.092L90.713 89.2303C89.5554 91.1939 88.8034 93.4184 87.8841 95.4374C86.3682 98.0226 85.661 96.433 85.877 96.8387C82.894 102.886 81.4097 107.967 80.1309 112.137C81.0423 113.5 80.1534 120.345 80.4969 125.822C79.0008 152.879 99.4856 179.147 121.878 185.21C125.159 186.386 130.039 186.344 134.19 186.46C129.294 185.059 128.661 185.718 123.889 184.055C120.447 182.433 119.694 180.582 117.255 178.466L118.22 180.171C113.439 178.479 115.44 178.077 111.549 176.846L112.581 175.501C111.031 175.383 108.476 172.891 107.778 171.507L106.081 171.574C104.045 169.064 102.959 167.25 103.039 165.845L102.491 166.822C101.871 165.757 94.996 157.395 98.5624 159.341C97.9 158.738 97.0189 158.358 96.0641 156.62L96.7898 155.792C95.0763 153.583 93.6315 150.753 93.7422 149.81C94.6575 151.046 95.2923 151.277 95.9219 151.489C91.5875 140.737 91.3438 150.898 88.0632 140.545L88.756 140.49C88.2252 139.685 87.8999 138.817 87.4732 137.962L87.7761 134.953C84.6574 131.35 86.9042 119.616 87.356 113.183C87.6655 110.567 89.9597 107.782 91.7021 103.413L90.6407 103.231C92.6714 99.6913 102.233 89.009 106.663 89.5569C108.809 86.8623 106.237 89.5464 105.817 88.8694C110.53 83.9925 112.012 85.4241 115.192 84.5457C118.621 82.5109 112.249 85.3411 113.874 83.77C119.805 82.2567 118.075 80.3273 125.81 79.5595C126.627 80.0231 123.917 80.2759 123.238 80.8778C128.177 78.4598 138.87 79.0116 145.818 82.2185C153.874 85.9865 162.931 97.1192 163.29 107.593L163.697 107.703C163.491 111.867 164.334 116.683 162.871 121.106L163.86 119.01Z" fill="white"/>
</g>
</g>
<defs>
<clipPath id="clip0_33_879">
<rect width="256" height="256" fill="white"/>
</clipPath>
<clipPath id="clip1_33_879">
<rect width="175" height="175" fill="white" transform="translate(40 40)"/>
</clipPath>
</defs>
</svg>

        </g>
         
        <g transform="translate(1500, 0)">
          <svg width="256" height="256" viewBox="0 0 256 256" fill="none" xmlns="http://www.w3.org/2000/svg">
<g clip-path="url(#clip0_33_740)">
<path d="M196 0H60C26.8629 0 0 26.8629 0 60V196C0 229.137 26.8629 256 60 256H196C229.137 256 256 229.137 256 196V60C256 26.8629 229.137 0 196 0Z" fill="#242938"/>
<path fill-rule="evenodd" clip-rule="evenodd" d="M191.072 195.009C187.802 200.396 184.532 204.435 180.588 208.185C176.164 212.129 174.914 215.591 164.718 216.939C157.505 218.286 151.253 215.591 148.848 214.534C141.634 211.167 137.882 210.11 133.555 210.11C129.323 210.11 125.764 211.168 118.646 214.438C116.434 215.591 110.471 218.189 103.161 216.843C95.6587 215.496 91.8113 212.611 89.022 210.206C83.251 205.109 78.9228 200.299 74.9792 194.721L191.072 195.009Z" fill="#00A0E2"/>
<path fill-rule="evenodd" clip-rule="evenodd" d="M58.7255 105.27C62.0919 97.6719 66.5163 92.5741 70.9407 89.0154C82.1942 79.7818 100.565 79.2047 109.029 81.4169C115.955 83.1482 120.86 87.3802 128.651 87.3802C136.826 87.3802 141.538 83.2444 147.984 81.4169C156.448 79.3009 174.915 79.9741 186.938 89.2077C190.497 91.9009 193.765 95.5558 195.593 97.5757C191.266 100.75 188.668 103.058 186.552 105.27H58.7255Z" fill="#34BE2D"/>
<path fill-rule="evenodd" clip-rule="evenodd" d="M186.553 105.27C184.533 107.482 183.091 109.599 181.455 112.58C179.533 116.043 177.223 120.756 176.646 127.873H53.0508C53.147 126.719 53.2431 125.469 53.4355 124.218C54.5897 116.62 56.4172 110.368 58.7256 105.27H186.553Z" fill="#FFB400"/>
<path fill-rule="evenodd" clip-rule="evenodd" d="M176.646 127.873C176.55 130.052 176.55 132.235 176.646 134.414C176.935 139.704 178.762 145.571 181.167 150.284L55.4553 149.995C53.724 142.397 52.7622 134.606 53.0507 127.873H176.646Z" fill="#FF7A00"/>
<path fill-rule="evenodd" clip-rule="evenodd" d="M181.166 150.284C182.15 152.325 183.342 154.259 184.724 156.055C192.996 166.635 196.555 166.635 202.999 169.906C202.52 171.058 202.135 172.118 201.653 173.08L62.7653 172.791C60.0721 166.924 57.2828 158.652 55.4553 149.996L181.166 150.284Z" fill="#F41E34"/>
<path fill-rule="evenodd" clip-rule="evenodd" d="M201.653 173.08C197.614 182.506 194.343 189.429 191.072 195.009L74.9805 194.721C71.1332 189.046 67.6706 182.793 63.7271 175.002C63.4385 174.329 63.0538 173.559 62.7653 172.791L201.653 173.08Z" fill="#A2359C"/>
<path fill-rule="evenodd" clip-rule="evenodd" d="M161.352 52.658C160.679 57.4672 158.274 63.6229 154.427 67.5664C150.289 71.9909 143.846 76.8 139.998 79.2046C137.882 80.5512 132.399 80.7435 127.88 81.2245C127.303 77.1848 127.207 73.7222 128.457 69.971C130.092 65.5466 132.21 59.1985 135.575 54.7741C139.711 49.2916 144.424 45.5405 147.021 44.1939C150.484 42.4626 156.255 39.8656 161.256 39C161.449 43.4244 162.123 48.426 161.352 52.658Z" fill="#34BE2D"/>
</g>
<defs>
<clipPath id="clip0_33_740">
<rect width="256" height="256" fill="white"/>
</clipPath>
</defs>
</svg>

        </g>
        
  </svg>
  